# xmcd CD database file
#
# Track frame offsets:
#	150
#	21424
#	40494
#	53316
#	68037
#	83961
#	99620
#	110961
#	132653
#	148494
#	171398
#	195300
#	213651
#	223423
#	257693
#	274451
#	298836
#
# Disc length: 4342 seconds
#
# Revision: 0
# Processed by: cddbd v1.5.2PL0 Copyright (c) Steve Scherf et al.
# Submitted via: CDex 1.51
#
DISCID=2510f411
DTITLE=Andreas Vollenweider and Friends - 25 Years Live 1982-2997 [CD2)
DYEAR=2008
DGENRE=New Age
TTITLE0=Pearls and Tears
TTITLE1=First Piece
TTITLE2=See, My Love
TTITLE3=And The Long Shadows
TTITLE4=Letters To A Young Rose
TTITLE5=Book Of Roses
TTITLE6=Song Of Isolde
TTITLE7=Sailor
TTITLE8=The Years In The Forest
TTITLE9=Arion
TTITLE10=Desert Of Rain
TTITLE11=Princess Kira
TTITLE12=Passionata
TTITLE13=Hey You! Yes You
TTITLE14=Seven Doors
TTITLE15=Pilgrim
TTITLE16=Pyramid
EXTD=YEAR: 2008
EXTT0=
EXTT1=
EXTT2=
EXTT3=
EXTT4=
EXTT5=
EXTT6=
EXTT7=
EXTT8=
EXTT9=
EXTT10=
EXTT11=
EXTT12=
EXTT13=
EXTT14=
EXTT15=
EXTT16=
PLAYORDER=
